<?xml version="1.0" encoding="UTF-8"?>
<svg id="Layer_2" xmlns="http://www.w3.org/2000/svg" viewBox="0 0 201.78 762.2">
  <defs>
    <style>
      .cls-1 {
        fill: none;
        stroke: #fdbd0e;
        stroke-miterlimit: 10;
        stroke-width: 3px;
      }
    </style>
  </defs>
  <g id="Layer_1-2" data-name="Layer_1">
    <path class="cls-1" d="M51.23,761.37c-6.73-10.1-12.73-21.61-17.73-33.13-4-10.47-8-20.93-12-31.4-3-11.51-6-21.98-8-33.49-10-45.01-12-87.92-12-131.89,1-41.87,6-86.88,39-117.23,28-26.17,69-34.54,103-17.79,45,21.98,76,84.78,43,131.89-2,1.05-3,3.14-5,5.23-12,11.51-28,14.65-44,12.56-22-3.14-43-16.75-54-37.68l-3-3.14c-10-18.84-15-37.68-18-58.62-2-13.61-3-26.17-4-38.73-1-16.75-1-32.45-1-49.2-1-45.01,2-87.92,9-132.93C79.5,146.27,100.5,73,130,.57"/>
  </g>
</svg>